<svg version="1.1" id="Layer_1" xmlns="http://www.w3.org/2000/svg" xmlns:xlink="http://www.w3.org/1999/xlink" x="0px" y="0px"
	 width="100%" viewBox="0 0 4320 4640" enable-background="new 0 0 4320 4640" xml:space="preserve">
<path fill="#010101" opacity="1.000000" stroke="none" 
	d="
M4324.000000,307.999969 
	C4324.000000,1389.450806 4324.000000,2470.901611 4322.323242,3554.231934 
	C4273.249023,3548.892578 4225.846680,3541.713135 4178.457031,3534.444580 
	C4129.755859,3526.974121 4081.069824,3519.402100 4032.372803,3511.902344 
	C3985.646484,3504.706055 3938.912598,3497.558594 3892.185791,3490.364746 
	C3843.487793,3482.867188 3794.792725,3475.350342 3746.099365,3467.821533 
	C3721.093750,3463.955322 3696.098633,3460.022217 3671.091309,3456.166504 
	C3660.472412,3454.529297 3652.409912,3449.499512 3648.133301,3439.289062 
	C3643.234863,3427.593994 3645.531250,3417.070068 3653.768799,3407.831055 
	C3659.085205,3401.868164 3665.063232,3396.497070 3670.408691,3390.558105 
	C3700.790039,3356.805664 3720.843262,3317.167480 3735.346680,3274.578369 
	C3756.804688,3211.565674 3766.170166,3146.214111 3766.437744,3080.093506 
	C3767.353271,2854.109619 3766.795898,2628.119629 3766.732422,2402.132080 
	C3766.731201,2397.673340 3765.897217,2393.214600 3765.329590,2387.531006 
	C3493.065430,2366.906250 3221.619873,2346.343262 2950.174316,2325.785400 
	C2944.204590,2325.333252 2938.230713,2324.938965 2932.256836,2324.544434 
	C2931.598145,2324.500977 2930.858887,2324.473877 2930.282715,2324.726074 
	C2929.716797,2324.974365 2929.311279,2325.588623 2927.335938,2327.469971 
	C2927.181641,2333.785400 2926.823242,2341.626953 2926.822754,2349.468262 
	C2926.795654,2765.445312 2926.798584,3181.422607 2926.798584,3597.399658 
	C2926.798584,3750.057861 2926.855469,3902.716064 2926.742676,4055.374268 
	C2926.723877,4080.739014 2924.012207,4105.864258 2917.627441,4130.500977 
	C2886.135254,4252.020508 2781.143066,4332.673828 2666.508057,4340.507324 
	C2635.293701,4342.640137 2604.182617,4346.294922 2573.028564,4349.296387 
	C2535.252930,4352.935059 2497.486084,4356.666016 2459.707275,4360.272949 
	C2427.226562,4363.374512 2394.729004,4366.300781 2362.248779,4369.407227 
	C2325.794922,4372.893066 2289.357910,4376.556152 2252.902832,4380.027344 
	C2219.757324,4383.183105 2186.591553,4386.130371 2153.444092,4389.267578 
	C2114.999512,4392.905762 2076.567627,4396.677246 2038.125610,4400.343262 
	C2006.307129,4403.376953 1974.477173,4406.291016 1942.660889,4409.347656 
	C1905.545044,4412.912598 1868.444580,4416.636719 1831.326050,4420.173340 
	C1798.180542,4423.331543 1765.012817,4426.256348 1731.867310,4429.414551 
	C1694.750977,4432.950195 1657.654541,4436.693359 1620.538574,4440.233398 
	C1588.057495,4443.330566 1555.554932,4446.202148 1523.073486,4449.296387 
	C1485.291992,4452.895508 1447.528198,4456.680664 1409.747070,4460.284180 
	C1377.265015,4463.382324 1344.762451,4466.265137 1312.281860,4469.377930 
	C1275.830200,4472.871582 1239.401001,4476.597656 1202.947388,4480.069824 
	C1169.803101,4483.226074 1136.632690,4486.108887 1103.485596,4489.238281 
	C1065.038818,4492.867676 1026.607544,4496.661133 988.164551,4500.330566 
	C956.345032,4503.367676 924.513184,4506.275391 892.695740,4509.333984 
	C856.908447,4512.772461 821.138184,4516.389160 785.348022,4519.796875 
	C751.540100,4523.015625 717.709778,4525.999512 683.899963,4529.198730 
	C630.870483,4534.216797 577.844849,4539.276367 524.827759,4544.422852 
	C491.031677,4547.703613 457.266968,4551.312012 423.464264,4554.520508 
	C385.674774,4558.107422 347.897614,4561.960449 310.041199,4564.663086 
	C278.005859,4566.950684 246.222000,4564.682129 214.965744,4556.135742 
	C109.452255,4527.284180 28.303946,4438.434570 11.746985,4329.746094 
	C10.717648,4322.989258 9.570039,4316.618164 4.000000,4312.000000 
	C4.000000,3126.549316 4.000000,1941.098389 5.724261,753.669189 
	C13.409590,752.268616 19.410965,752.579163 25.324596,753.471313 
	C48.364773,756.947510 71.371765,760.642883 94.400948,764.192810 
	C141.119492,771.394653 187.848480,778.528748 234.565628,785.739441 
	C281.940521,793.051636 329.297882,800.478088 376.678619,807.752075 
	C424.059845,815.026062 471.467682,822.127075 518.850830,829.388855 
	C568.208435,836.953125 617.555176,844.588806 666.896973,852.255737 
	C685.851929,855.201111 704.780029,858.319031 722.717529,861.197449 
	C727.127014,869.328735 722.515869,872.332764 717.784790,875.179077 
	C675.285645,900.747681 645.960083,937.963379 623.633057,981.419861 
	C609.875549,1008.196777 599.756104,1036.349609 592.137146,1065.389526 
	C577.868591,1119.774658 570.929810,1175.190674 570.869263,1231.365234 
	C570.678223,1408.664673 570.798706,1585.964355 570.798828,1763.264038 
	C570.798828,1820.586426 570.772278,1877.908936 570.845520,1935.231323 
	C570.851990,1940.314697 571.509094,1945.397339 571.923523,1951.332397 
	C577.835510,1951.716309 582.383179,1952.056030 586.935913,1952.300293 
	C618.839661,1954.010742 650.789917,1955.103394 682.639526,1957.522827 
	C748.744751,1962.544434 814.459961,1960.292114 879.534180,1947.403564 
	C951.124634,1933.224487 1016.860962,1905.462646 1074.468262,1859.938354 
	C1115.062622,1827.858276 1149.054932,1789.671753 1178.163452,1747.006470 
	C1209.434937,1701.171143 1234.328857,1651.915161 1256.355591,1601.144165 
	C1294.020630,1514.327515 1322.731934,1424.281860 1351.890747,1334.418945 
	C1377.353882,1255.945068 1402.929688,1177.514648 1432.376831,1100.422485 
	C1472.606812,995.100220 1519.944946,893.251587 1581.552856,798.488342 
	C1656.095093,683.829895 1748.174316,585.876709 1859.918091,506.678772 
	C1934.685669,453.687439 2014.922607,410.728149 2099.657471,376.082611 
	C2249.862305,314.668579 2406.742676,280.032715 2567.239014,260.050964 
	C2594.330811,256.678040 2621.463135,253.633865 2648.571289,250.390808 
	C2688.233154,245.645874 2727.885498,240.822296 2767.550049,236.099609 
	C2805.899170,231.533554 2844.265137,227.108170 2882.611328,222.519043 
	C2922.277588,217.771927 2961.921875,212.842773 3001.588867,208.103073 
	C3039.934326,203.521347 3078.301270,199.123062 3116.649414,194.564453 
	C3157.638672,189.691956 3198.618408,184.739441 3239.599121,179.796616 
	C3267.361572,176.448120 3295.113525,173.012726 3322.879395,169.694168 
	C3361.225342,165.111176 3399.578613,160.592789 3437.930664,156.062927 
	C3476.284912,151.532776 3514.647949,147.079285 3552.994629,142.488068 
	C3593.319824,137.659973 3633.623291,132.649353 3673.949219,127.827942 
	C3712.294434,123.243362 3750.662109,118.846741 3789.009521,114.282066 
	C3829.338623,109.481499 3869.656250,104.586739 3909.977295,99.719521 
	C3937.739746,96.368309 3965.531982,93.241043 3993.251953,89.566513 
	C4027.065918,85.084167 4060.916748,82.696060 4094.695801,88.847466 
	C4172.472656,103.011284 4234.588379,142.295242 4279.803711,207.196350 
	C4300.496582,236.898315 4316.120117,269.161011 4321.142090,305.675415 
	C4321.264160,306.564484 4323.010742,307.230103 4324.000000,307.999969 
M2926.796631,1573.999268 
	C2926.945312,1747.300171 2927.090332,1920.600952 2927.315674,2093.901855 
	C2927.317139,2095.043701 2928.431641,2096.183838 2929.820801,2098.849121 
	C3203.610107,2119.431396 3478.271973,2140.489014 3752.994385,2160.757080 
	C3756.857178,2161.041992 3760.784912,2160.446777 3766.007812,2160.199707 
	C3767.335449,2151.919434 3766.763916,2143.970947 3766.764160,2136.111572 
	C3766.793945,1572.133911 3766.791504,1008.156372 3766.791504,444.178772 
	C3766.791504,440.845581 3766.812256,437.512207 3766.787842,434.179199 
	C3766.393799,380.082520 3728.414062,339.506439 3685.614746,327.449982 
	C3666.469727,322.056885 3647.337158,323.215363 3628.109863,325.364624 
	C3585.097412,330.172638 3542.118408,335.282501 3499.119629,340.215973 
	C3471.995361,343.328156 3444.854980,346.297577 3417.731201,349.413574 
	C3375.394287,354.277313 3333.070312,359.252747 3290.731445,364.100494 
	C3262.944336,367.282104 3235.134033,370.262787 3207.346191,373.439514 
	C3165.007568,378.279724 3122.682617,383.243927 3080.344971,388.093689 
	C3051.896240,391.352448 3023.429199,394.450348 2994.981445,397.717377 
	C2954.630127,402.351410 2914.297363,407.145630 2873.941650,411.740082 
	C2833.579590,416.335297 2793.187012,420.661713 2752.830078,425.300171 
	C2700.563965,431.307465 2648.357422,437.851746 2596.054199,443.509735 
	C2557.559326,447.673981 2519.563232,454.324249 2482.230225,464.425323 
	C2414.101562,482.858612 2350.829834,511.573456 2294.180420,554.224731 
	C2235.857910,598.135620 2189.549316,652.663452 2151.606934,714.614075 
	C2117.409424,770.450439 2090.734619,829.888306 2067.910156,891.131714 
	C2038.133545,971.029236 2014.673340,1052.900146 1991.603271,1134.902710 
	C1964.212158,1232.263306 1937.707031,1329.888550 1904.342529,1425.466187 
	C1878.415771,1499.736938 1848.609497,1572.316406 1811.464355,1641.743530 
	C1769.429199,1720.310425 1718.651733,1792.631958 1656.124023,1856.322510 
	C1581.055054,1932.787598 1493.878296,1991.919189 1396.442871,2036.200195 
	C1309.915527,2075.524170 1219.421143,2101.988525 1126.267822,2119.872070 
	C1120.456665,2120.987793 1114.516968,2121.438721 1108.194214,2126.426758 
	C1111.982056,2127.202881 1114.212891,2127.701416 1116.459473,2128.114014 
	C1180.753052,2139.925781 1243.825806,2156.180664 1304.915283,2179.709473 
	C1419.209961,2223.729980 1516.206665,2291.704590 1593.293091,2387.418457 
	C1640.400146,2445.908691 1677.570923,2510.354492 1708.274902,2578.654297 
	C1751.301880,2674.366455 1780.829834,2774.458496 1803.837402,2876.596191 
	C1817.008301,2935.065674 1827.186890,2994.102295 1837.235840,3053.185791 
	C1851.970703,3139.820068 1868.565063,3226.118164 1887.836060,3311.884766 
	C1913.971558,3428.202637 1944.200317,3543.378906 1984.154785,3655.803467 
	C2014.079956,3740.007324 2048.908691,3822.010986 2095.985107,3898.340576 
	C2098.072754,3901.725586 2100.075195,3905.261475 2101.441650,3908.975586 
	C2106.444092,3922.570557 2099.765137,3938.415283 2086.326904,3943.741943 
	C2080.862061,3945.907959 2074.754883,3946.758057 2068.851562,3947.439453 
	C2060.256836,3948.430908 2051.566650,3948.558350 2042.944336,3949.350586 
	C2003.824951,3952.944580 1964.721313,3956.709473 1925.600098,3960.282471 
	C1891.779419,3963.371094 1857.931274,3966.159912 1824.115845,3969.302734 
	C1773.730103,3973.986328 1723.387085,3979.147461 1672.974609,3983.514160 
	C1653.832520,3985.172607 1634.643433,3986.381592 1615.300659,3985.340332 
	C1560.553833,3982.393311 1511.059448,3964.837402 1466.745850,3932.897949 
	C1412.833618,3894.040039 1377.906128,3841.929199 1360.131470,3778.032227 
	C1333.293701,3681.555420 1316.911865,3583.074219 1304.193359,3483.943848 
	C1297.584106,3432.429688 1292.177246,3380.751465 1286.925049,3329.076416 
	C1281.471313,3275.420166 1277.005981,3221.664551 1271.825562,3167.979736 
	C1268.692383,3135.511475 1266.236816,3102.909424 1261.306030,3070.699707 
	C1253.953125,3022.668457 1245.322388,2974.806641 1236.091919,2927.094238 
	C1219.009155,2838.792480 1196.839600,2751.752441 1167.146729,2666.792725 
	C1138.494507,2584.810791 1102.817749,2506.174805 1053.847656,2434.004150 
	C996.732971,2349.830566 924.785034,2281.926025 834.987854,2233.512451 
	C778.979126,2203.315430 719.567810,2182.196533 657.667114,2167.875732 
	C629.812195,2161.431152 601.770020,2156.015625 573.180847,2152.466553 
	C569.090149,2160.501221 570.883362,2168.628418 570.882263,2176.425049 
	C570.789490,2863.731201 570.796326,3551.037109 570.796814,4238.343262 
	C570.796814,4242.343262 570.758728,4246.343262 570.812866,4250.342773 
	C571.244080,4282.205078 584.262939,4308.401855 607.611694,4329.421875 
	C629.896301,4349.483398 656.280334,4359.175781 686.423218,4357.166016 
	C709.010742,4355.660645 731.569519,4353.686523 754.122864,4351.712402 
	C787.291992,4348.809570 820.454346,4345.821777 853.602478,4342.688965 
	C903.316772,4337.990234 953.003540,4332.999023 1002.725586,4328.384766 
	C1053.114990,4323.708496 1103.546753,4319.489258 1153.934692,4314.798340 
	C1217.579590,4308.875000 1281.188354,4302.562012 1344.832886,4296.635254 
	C1395.221313,4291.941895 1445.654541,4287.729980 1496.041992,4283.027832 
	C1560.347534,4277.027832 1624.619873,4270.671875 1688.919922,4264.613281 
	C1745.268188,4259.303711 1801.637207,4254.213867 1857.993530,4248.990234 
	C1930.261353,4242.291504 2002.522583,4235.519043 2074.792725,4228.846191 
	C2137.117676,4223.091309 2199.462646,4217.552734 2261.777832,4211.695801 
	C2317.994141,4206.412109 2352.561035,4164.544922 2361.156738,4126.374023 
	C2364.135742,4113.144531 2364.315918,4099.968750 2364.316162,4086.661621 
	C2364.334229,3071.368652 2364.319824,2056.075684 2364.455078,1040.782837 
	C2364.456787,1026.182739 2365.370850,1011.449768 2367.438721,997.005005 
	C2378.460693,920.018982 2415.735352,858.309937 2477.362549,811.215027 
	C2518.654053,779.660400 2566.080078,763.764648 2616.999756,756.155457 
	C2672.312012,747.889832 2727.464600,738.552795 2782.682129,729.653381 
	C2826.728027,722.554443 2870.760498,715.371765 2914.820312,708.359741 
	C2918.496582,707.774719 2922.679199,706.278137 2926.796387,711.564453 
	C2926.796387,996.823853 2926.796387,1283.411499 2926.796631,1573.999268 
z"/>
<path fill="#FFFFFF" opacity="1.000000" stroke="none" 
	d="
M4.000000,4313.874512 
	C9.570039,4316.618164 10.717648,4322.989258 11.746985,4329.746094 
	C28.303946,4438.434570 109.452255,4527.284180 214.965744,4556.135742 
	C246.222000,4564.682129 278.005859,4566.950684 310.041199,4564.663086 
	C347.897614,4561.960449 385.674774,4558.107422 423.464264,4554.520508 
	C457.266968,4551.312012 491.031677,4547.703613 524.827759,4544.422852 
	C577.844849,4539.276367 630.870483,4534.216797 683.899963,4529.198730 
	C717.709778,4525.999512 751.540100,4523.015625 785.348022,4519.796875 
	C821.138184,4516.389160 856.908447,4512.772461 892.695740,4509.333984 
	C924.513184,4506.275391 956.345032,4503.367676 988.164551,4500.330566 
	C1026.607544,4496.661133 1065.038818,4492.867676 1103.485596,4489.238281 
	C1136.632690,4486.108887 1169.803101,4483.226074 1202.947388,4480.069824 
	C1239.401001,4476.597656 1275.830200,4472.871582 1312.281860,4469.377930 
	C1344.762451,4466.265137 1377.265015,4463.382324 1409.747070,4460.284180 
	C1447.528198,4456.680664 1485.291992,4452.895508 1523.073486,4449.296387 
	C1555.554932,4446.202148 1588.057495,4443.330566 1620.538574,4440.233398 
	C1657.654541,4436.693359 1694.750977,4432.950195 1731.867310,4429.414551 
	C1765.012817,4426.256348 1798.180542,4423.331543 1831.326050,4420.173340 
	C1868.444580,4416.636719 1905.545044,4412.912598 1942.660889,4409.347656 
	C1974.477173,4406.291016 2006.307129,4403.376953 2038.125610,4400.343262 
	C2076.567627,4396.677246 2114.999512,4392.905762 2153.444092,4389.267578 
	C2186.591553,4386.130371 2219.757324,4383.183105 2252.902832,4380.027344 
	C2289.357910,4376.556152 2325.794922,4372.893066 2362.248779,4369.407227 
	C2394.729004,4366.300781 2427.226562,4363.374512 2459.707275,4360.272949 
	C2497.486084,4356.666016 2535.252930,4352.935059 2573.028564,4349.296387 
	C2604.182617,4346.294922 2635.293701,4342.640137 2666.508057,4340.507324 
	C2781.143066,4332.673828 2886.135254,4252.020508 2917.627441,4130.500977 
	C2924.012207,4105.864258 2926.723877,4080.739014 2926.742676,4055.374268 
	C2926.855469,3902.716064 2926.798584,3750.057861 2926.798584,3597.399658 
	C2926.798584,3181.422607 2926.795654,2765.445312 2926.822754,2349.468262 
	C2926.823242,2341.626953 2927.181641,2333.785400 2927.335938,2327.469971 
	C2929.311279,2325.588623 2929.716797,2324.974365 2930.282715,2324.726074 
	C2930.858887,2324.473877 2931.598145,2324.500977 2932.256836,2324.544434 
	C2938.230713,2324.938965 2944.204590,2325.333252 2950.174316,2325.785400 
	C3221.619873,2346.343262 3493.065430,2366.906250 3765.329590,2387.531006 
	C3765.897217,2393.214600 3766.731201,2397.673340 3766.732422,2402.132080 
	C3766.795898,2628.119629 3767.353271,2854.109619 3766.437744,3080.093506 
	C3766.170166,3146.214111 3756.804688,3211.565674 3735.346680,3274.578369 
	C3720.843262,3317.167480 3700.790039,3356.805664 3670.408691,3390.558105 
	C3665.063232,3396.497070 3659.085205,3401.868164 3653.768799,3407.831055 
	C3645.531250,3417.070068 3643.234863,3427.593994 3648.133301,3439.289062 
	C3652.409912,3449.499512 3660.472412,3454.529297 3671.091309,3456.166504 
	C3696.098633,3460.022217 3721.093750,3463.955322 3746.099365,3467.821533 
	C3794.792725,3475.350342 3843.487793,3482.867188 3892.185791,3490.364746 
	C3938.912598,3497.558594 3985.646484,3504.706055 4032.372803,3511.902344 
	C4081.069824,3519.402100 4129.755859,3526.974121 4178.457031,3534.444580 
	C4225.846680,3541.713135 4273.249023,3548.892578 4322.323242,3556.055664 
	C4324.000000,3918.556152 4324.000000,4281.112305 4324.000000,4643.824219 
	C2884.000000,4643.824219 1444.000000,4643.824219 4.000000,4643.824219 
	C4.000000,4534.349121 4.000000,4425.048828 4.000000,4313.874512 
z"/>
<path fill="#FFFFFF" opacity="1.000000" stroke="none" 
	d="
M4324.000000,306.125336 
	C4323.010742,307.230103 4321.264160,306.564484 4321.142090,305.675415 
	C4316.120117,269.161011 4300.496582,236.898315 4279.803711,207.196350 
	C4234.588379,142.295242 4172.472656,103.011284 4094.695801,88.847466 
	C4060.916748,82.696060 4027.065918,85.084167 3993.251953,89.566513 
	C3965.531982,93.241043 3937.739746,96.368309 3909.977295,99.719521 
	C3869.656250,104.586739 3829.338623,109.481499 3789.009521,114.282066 
	C3750.662109,118.846741 3712.294434,123.243362 3673.949219,127.827942 
	C3633.623291,132.649353 3593.319824,137.659973 3552.994629,142.488068 
	C3514.647949,147.079285 3476.284912,151.532776 3437.930664,156.062927 
	C3399.578613,160.592789 3361.225342,165.111176 3322.879395,169.694168 
	C3295.113525,173.012726 3267.361572,176.448120 3239.599121,179.796616 
	C3198.618408,184.739441 3157.638672,189.691956 3116.649414,194.564453 
	C3078.301270,199.123062 3039.934326,203.521347 3001.588867,208.103073 
	C2961.921875,212.842773 2922.277588,217.771927 2882.611328,222.519043 
	C2844.265137,227.108170 2805.899170,231.533554 2767.550049,236.099609 
	C2727.885498,240.822296 2688.233154,245.645874 2648.571289,250.390808 
	C2621.463135,253.633865 2594.330811,256.678040 2567.239014,260.050964 
	C2406.742676,280.032715 2249.862305,314.668579 2099.657471,376.082611 
	C2014.922607,410.728149 1934.685669,453.687439 1859.918091,506.678772 
	C1748.174316,585.876709 1656.095093,683.829895 1581.552856,798.488342 
	C1519.944946,893.251587 1472.606812,995.100220 1432.376831,1100.422485 
	C1402.929688,1177.514648 1377.353882,1255.945068 1351.890747,1334.418945 
	C1322.731934,1424.281860 1294.020630,1514.327515 1256.355591,1601.144165 
	C1234.328857,1651.915161 1209.434937,1701.171143 1178.163452,1747.006470 
	C1149.054932,1789.671753 1115.062622,1827.858276 1074.468262,1859.938354 
	C1016.860962,1905.462646 951.124634,1933.224487 879.534180,1947.403564 
	C814.459961,1960.292114 748.744751,1962.544434 682.639526,1957.522827 
	C650.789917,1955.103394 618.839661,1954.010742 586.935913,1952.300293 
	C582.383179,1952.056030 577.835510,1951.716309 571.923523,1951.332397 
	C571.509094,1945.397339 570.851990,1940.314697 570.845520,1935.231323 
	C570.772278,1877.908936 570.798828,1820.586426 570.798828,1763.264038 
	C570.798706,1585.964355 570.678223,1408.664673 570.869263,1231.365234 
	C570.929810,1175.190674 577.868591,1119.774658 592.137146,1065.389526 
	C599.756104,1036.349609 609.875549,1008.196777 623.633057,981.419861 
	C645.960083,937.963379 675.285645,900.747681 717.784790,875.179077 
	C722.515869,872.332764 727.127014,869.328735 722.717529,861.197449 
	C704.780029,858.319031 685.851929,855.201111 666.896973,852.255737 
	C617.555176,844.588806 568.208435,836.953125 518.850830,829.388855 
	C471.467682,822.127075 424.059845,815.026062 376.678619,807.752075 
	C329.297882,800.478088 281.940521,793.051636 234.565628,785.739441 
	C187.848480,778.528748 141.119492,771.394653 94.400948,764.192810 
	C71.371765,760.642883 48.364773,756.947510 25.324596,753.471313 
	C19.410965,752.579163 13.409590,752.268616 5.724261,751.845459 
	C4.000000,502.747864 4.000000,253.495743 4.000000,4.174401 
	C1444.000000,4.174401 2884.000000,4.174401 4324.000000,4.174401 
	C4324.000000,104.316116 4324.000000,204.283417 4324.000000,306.125336 
z"/>
<path fill="#FEFEFE" opacity="1.000000" stroke="none" 
	d="
M2926.796387,1571.999146 
	C2926.796387,1283.411499 2926.796387,996.823853 2926.796387,711.564453 
	C2922.679199,706.278137 2918.496582,707.774719 2914.820312,708.359741 
	C2870.760498,715.371765 2826.728027,722.554443 2782.682129,729.653381 
	C2727.464600,738.552795 2672.312012,747.889832 2616.999756,756.155457 
	C2566.080078,763.764648 2518.654053,779.660400 2477.362549,811.215027 
	C2415.735352,858.309937 2378.460693,920.018982 2367.438721,997.005005 
	C2365.370850,1011.449768 2364.456787,1026.182739 2364.455078,1040.782837 
	C2364.319824,2056.075684 2364.334229,3071.368652 2364.316162,4086.661621 
	C2364.315918,4099.968750 2364.135742,4113.144531 2361.156738,4126.374023 
	C2352.561035,4164.544922 2317.994141,4206.412109 2261.777832,4211.695801 
	C2199.462646,4217.552734 2137.117676,4223.091309 2074.792725,4228.846191 
	C2002.522583,4235.519043 1930.261353,4242.291504 1857.993530,4248.990234 
	C1801.637207,4254.213867 1745.268188,4259.303711 1688.919922,4264.613281 
	C1624.619873,4270.671875 1560.347534,4277.027832 1496.041992,4283.027832 
	C1445.654541,4287.729980 1395.221313,4291.941895 1344.832886,4296.635254 
	C1281.188354,4302.562012 1217.579590,4308.875000 1153.934692,4314.798340 
	C1103.546753,4319.489258 1053.114990,4323.708496 1002.725586,4328.384766 
	C953.003540,4332.999023 903.316772,4337.990234 853.602478,4342.688965 
	C820.454346,4345.821777 787.291992,4348.809570 754.122864,4351.712402 
	C731.569519,4353.686523 709.010742,4355.660645 686.423218,4357.166016 
	C656.280334,4359.175781 629.896301,4349.483398 607.611694,4329.421875 
	C584.262939,4308.401855 571.244080,4282.205078 570.812866,4250.342773 
	C570.758728,4246.343262 570.796814,4242.343262 570.796814,4238.343262 
	C570.796326,3551.037109 570.789490,2863.731201 570.882263,2176.425049 
	C570.883362,2168.628418 569.090149,2160.501221 573.180847,2152.466553 
	C601.770020,2156.015625 629.812195,2161.431152 657.667114,2167.875732 
	C719.567810,2182.196533 778.979126,2203.315430 834.987854,2233.512451 
	C924.785034,2281.926025 996.732971,2349.830566 1053.847656,2434.004150 
	C1102.817749,2506.174805 1138.494507,2584.810791 1167.146729,2666.792725 
	C1196.839600,2751.752441 1219.009155,2838.792480 1236.091919,2927.094238 
	C1245.322388,2974.806641 1253.953125,3022.668457 1261.306030,3070.699707 
	C1266.236816,3102.909424 1268.692383,3135.511475 1271.825562,3167.979736 
	C1277.005981,3221.664551 1281.471313,3275.420166 1286.925049,3329.076416 
	C1292.177246,3380.751465 1297.584106,3432.429688 1304.193359,3483.943848 
	C1316.911865,3583.074219 1333.293701,3681.555420 1360.131470,3778.032227 
	C1377.906128,3841.929199 1412.833618,3894.040039 1466.745850,3932.897949 
	C1511.059448,3964.837402 1560.553833,3982.393311 1615.300659,3985.340332 
	C1634.643433,3986.381592 1653.832520,3985.172607 1672.974609,3983.514160 
	C1723.387085,3979.147461 1773.730103,3973.986328 1824.115845,3969.302734 
	C1857.931274,3966.159912 1891.779419,3963.371094 1925.600098,3960.282471 
	C1964.721313,3956.709473 2003.824951,3952.944580 2042.944336,3949.350586 
	C2051.566650,3948.558350 2060.256836,3948.430908 2068.851562,3947.439453 
	C2074.754883,3946.758057 2080.862061,3945.907959 2086.326904,3943.741943 
	C2099.765137,3938.415283 2106.444092,3922.570557 2101.441650,3908.975586 
	C2100.075195,3905.261475 2098.072754,3901.725586 2095.985107,3898.340576 
	C2048.908691,3822.010986 2014.079956,3740.007324 1984.154785,3655.803467 
	C1944.200317,3543.378906 1913.971558,3428.202637 1887.836060,3311.884766 
	C1868.565063,3226.118164 1851.970703,3139.820068 1837.235840,3053.185791 
	C1827.186890,2994.102295 1817.008301,2935.065674 1803.837402,2876.596191 
	C1780.829834,2774.458496 1751.301880,2674.366455 1708.274902,2578.654297 
	C1677.570923,2510.354492 1640.400146,2445.908691 1593.293091,2387.418457 
	C1516.206665,2291.704590 1419.209961,2223.729980 1304.915283,2179.709473 
	C1243.825806,2156.180664 1180.753052,2139.925781 1116.459473,2128.114014 
	C1114.212891,2127.701416 1111.982056,2127.202881 1108.194214,2126.426758 
	C1114.516968,2121.438721 1120.456665,2120.987793 1126.267822,2119.872070 
	C1219.421143,2101.988525 1309.915527,2075.524170 1396.442871,2036.200195 
	C1493.878296,1991.919189 1581.055054,1932.787598 1656.124023,1856.322510 
	C1718.651733,1792.631958 1769.429199,1720.310425 1811.464355,1641.743530 
	C1848.609497,1572.316406 1878.415771,1499.736938 1904.342529,1425.466187 
	C1937.707031,1329.888550 1964.212158,1232.263306 1991.603271,1134.902710 
	C2014.673340,1052.900146 2038.133545,971.029236 2067.910156,891.131714 
	C2090.734619,829.888306 2117.409424,770.450439 2151.606934,714.614075 
	C2189.549316,652.663452 2235.857910,598.135620 2294.180420,554.224731 
	C2350.829834,511.573456 2414.101562,482.858612 2482.230225,464.425323 
	C2519.563232,454.324249 2557.559326,447.673981 2596.054199,443.509735 
	C2648.357422,437.851746 2700.563965,431.307465 2752.830078,425.300171 
	C2793.187012,420.661713 2833.579590,416.335297 2873.941650,411.740082 
	C2914.297363,407.145630 2954.630127,402.351410 2994.981445,397.717377 
	C3023.429199,394.450348 3051.896240,391.352448 3080.344971,388.093689 
	C3122.682617,383.243927 3165.007568,378.279724 3207.346191,373.439514 
	C3235.134033,370.262787 3262.944336,367.282104 3290.731445,364.100494 
	C3333.070312,359.252747 3375.394287,354.277313 3417.731201,349.413574 
	C3444.854980,346.297577 3471.995361,343.328156 3499.119629,340.215973 
	C3542.118408,335.282501 3585.097412,330.172638 3628.109863,325.364624 
	C3647.337158,323.215363 3666.469727,322.056885 3685.614746,327.449982 
	C3728.414062,339.506439 3766.393799,380.082520 3766.787842,434.179199 
	C3766.812256,437.512207 3766.791504,440.845581 3766.791504,444.178772 
	C3766.791504,1008.156372 3766.793945,1572.133911 3766.764160,2136.111572 
	C3766.763916,2143.970947 3767.335449,2151.919434 3766.007812,2160.199707 
	C3760.784912,2160.446777 3756.857178,2161.041992 3752.994385,2160.757080 
	C3478.271973,2140.489014 3203.610107,2119.431396 2929.820801,2098.849121 
	C2928.431641,2096.183838 2927.317139,2095.043701 2927.315674,2093.901855 
	C2927.090332,1920.600952 2926.945312,1747.300171 2926.796387,1571.999146 
z"/>
</svg>