<svg version="1" xmlns="http://www.w3.org/2000/svg" width="4800" height="4800" viewBox="0 0 3600.000000 3600.000000"><path d="M2144.1 147.1c-2.3 3.8-2.7 7.6-1 11.2.8 1.9.6 4.2-1.2 10.7-1.9 7.3-2.5 8.4-5.1 9.4-1.5.6-3.1 1.9-3.4 2.9-.5 1.6-1.7 1.7-11.2 1.5-9.5-.3-11-.1-13.7 1.8-1.6 1.2-5 2.4-7.5 2.7-2.5.3-9.9 1.3-16.5 2.2-9.1 1.2-13.4 1.4-18 .7-9.2-1.5-11-1.4-15.1 1.5-3.6 2.5-5.1 2.8-17.9 3.6-21.4 1.3-42.5.3-47.3-2.3-.9-.5-5.2-1.6-9.4-2.6-7.5-1.6-7.8-1.6-11.7.3-3.5 1.7-5.5 2-12.8 1.6l-8.8-.5-10 5.2c-5.5 2.9-11.1 6.1-12.5 7-3.4 2.4-23 11-25.1 11-2.9 0-3.7 4.4-4.9 26.1-.6 11.8-1.6 22.8-2.1 24.5-.5 1.7-1.2 4.2-1.4 5.5-.3 1.3-1 3.7-1.7 5.4-1.4 3.5-15.8 20.3-22 25.8-6.3 5.5-7 6.1-10.3 10.1-1.6 2-3.9 4.6-5.1 5.9-1.1 1.2-3.3 4-4.8 6.3-2.4 3.8-3.2 4.2-11.4 6.3-6 1.5-11.2 2.1-16.8 2-8.4-.1-11.6.8-13.4 4.1-.9 1.6-2.1 1.9-9.3 1.8-8.4-.1-11.3.7-15.3 4.4-1.4 1.2-4.7 2.2-10 2.8-15.5 1.9-23.2 3.8-30.1 7.3-3.7 1.9-10.3 5.2-14.7 7.2-6 2.8-8.1 4.4-8.9 6.4-.7 1.9-3.6 4.4-8.9 7.7-4.3 2.7-11.1 7.2-15.1 10.1-3.9 2.9-9.5 6-12.2 6.8-8.3 2.7-14.8 6.7-16.5 10.2-1.7 3.5-3.8 5.3-12.5 10.5-3.3 2-7.1 4.9-8.5 6.3-1.4 1.5-5.4 4.7-9 7.1-3.6 2.4-7.9 5.6-9.5 7.1-5.3 4.9-14.9 12-17.2 12.7-3.2 1-5.9 5.4-6.6 10.6-.3 2.5-1.5 11.7-2.6 20.5-2.2 18.6-6.4 36.9-12.2 54.5l-4.2 12.5-.6 26c-.5 20.4-1 26.7-2.2 29.5-.9 1.9-2.1 5.8-2.8 8.5-1.2 4.9-4.4 9.4-23.7 33.5-2.4 3-7.4 9.3-11 13.9-3.6 4.7-8.3 10.4-10.4 12.8-4.1 4.7-11.9 16-14.3 20.8-.8 1.6-3.1 7.1-5 12-1.9 5-4.8 11.8-6.5 15-1.6 3.3-4.6 10.3-6.6 15.5-2.1 5.2-5.3 12.9-7.3 17-7.2 15.2-7.5 16.9-10.9 58.5-.8 10.4-2.2 25.1-3 32.5-.8 7.4-2 17.5-2.5 22.5-1.2 10.6-1 12 3.7 23.9 7 17.6 14.7 49.3 16.3 66.6.8 8.3 2.7 12.7 6.8 16 1.6 1.2 5.7 4.4 9.3 7.2 6 4.6 10.4 8.4 20 17.2 1.9 1.7 6.1 5.1 9.2 7.4 9.6 7.3 19.8 19.1 28.3 32.6 10.3 16.4 13.6 21.4 21.5 32.8 4.6 6.7 7.4 12.1 10 19.3l3.5 10-.7 15c-2.2 48.2-2.9 61.4-3.9 74.5-.8 10.6-.8 23.7.1 49 .7 19 1.3 44.4 1.5 56.5.2 12.1.8 24 1.4 26.5.5 2.5 1.3 14.4 1.7 26.5.5 17.4 1 22.5 2.2 24.5 2.7 4.3 12.2 13.8 25.2 25.3 11.4 10.1 16.7 16.3 20.1 23.7.6 1.4 1.5 7.2 2 13 .5 5.7 1.4 13.1 2 16.5.6 3.3 1.3 11.6 1.4 18.5.3 10.8-.1 15.1-3.1 31.5-1.9 10.4-4.4 22.1-5.5 26-1.2 3.8-2.4 9.7-2.6 13.1-.6 7-.3 7.7 9.1 22.2 3.5 5.3 7.9 12.6 9.9 16.2 1.9 3.6 6 10.4 9 15.2 3 4.8 7.5 12.9 10 18 4.3 8.8 5.3 10 18.9 22.8 7.8 7.4 21.5 20.6 30.3 29.3 8.8 8.6 16.1 15.7 16.3 15.7.2 0 4.9 3.5 10.5 7.9 5.7 4.3 12.7 9.4 15.7 11.4s8.2 5.6 11.5 8.2c7.8 6 18.3 11.1 33.5 16.4 12.5 4.3 19.1 7.6 27.6 13.7 4.1 3 8 5.4 8.5 5.4s1.2.7 1.5 1.5c.4.8.9 1.5 1.4 1.5.4 0 3.8 2.1 7.6 4.6 9 5.9 21.5 11.8 28.4 13.4 3 .7 9.6 2.5 14.5 4.1 5 1.6 11.5 3.6 14.5 4.5 8.2 2.4 25 8.5 29.1 10.5 2 1 6.1 4.2 9.2 7.2 3.1 3 6 5.7 6.5 5.8 1.6.6 1.7 6.9.3 14.9l-1.4 7.5-12 12c-11 11-16.9 15.7-25.4 20.2-1.8.9-3.3 2-3.3 2.3 0 .3-5.3.4-11.7.2-13.8-.6-38.6 1.5-42.6 3.5-2.7 1.3-8.7 9.1-13.7 17.5-4.6 7.7-15 17.3-22.1 20.1-13.6 5.6-17.6 7.4-22.9 10.5-10.3 6.1-38.5 19.5-42.5 20.3-2.2.4-5.2 1.1-6.6 1.4-1.9.5-4.8-.3-10.4-3-8.7-4.2-10.9-4.9-24.5-7-5.2-.8-10.6-1.7-12-2-1.4-.3-7.4-1.2-13.4-2-16.7-2.3-25.1-4.9-41.3-12.6-5.5-2.6-13.9-6.2-18.5-8-11.8-4.5-19-7.8-21.3-9.8-2.8-2.5-11.1-7.1-12.7-7.1-3.2 0-27.5 13.3-31.8 17.4-6.4 6.1-13.4 10.3-21 12.7-6.4 2-7.2 2-71.5.9-80.5-1.4-90.9-2.4-114.3-11.6-10.9-4.3-10.5-4.5-17.8 7.2-2.4 3.9-6.8 9.1-9.6 11.5-2.9 2.4-7 6.1-9.2 8.2-2.8 2.7-4.6 3.7-6 3.3-1.2-.3-5.9-.6-10.6-.6-10.1-.2-15.4 1.7-37.6 12.8-7.6 3.9-14.6 7.3-15.6 7.6-.9.2-4 3.3-6.8 6.7-6.7 8.1-15.6 15-18.4 14.4-1.2-.2-3.4-.6-5.1-.9-1.6-.2-5.9-.9-9.4-1.6-8-1.6-8.5-1.2-10.2 11.1-.6 4.9-1.6 8.9-2.1 8.9-.4 0-1.4 1.2-2 2.7-.7 1.6-2 3.9-3 5.2-1 1.3-1.8 3.1-1.8 4.1 0 1.3-1.5 2-6.8 2.9-11.8 2.1-24.6-1.1-36.4-9.1-1.7-1.2-3.6-1.6-5-1.3-2.4.6-9.2 7-18 16.9-2.9 3.2-7.1 6.7-9.2 7.8-2.2 1.1-4.7 2.8-5.5 3.8-1.8 2.1-6 2.7-46.1 6.4-14.6 1.4-34.6 2.7-44.5 3-23.2.7-46.7 3.3-78.7 8.6-15.3 2.6-19.2 3-30.8 3-15.2 0-28.5-1.9-36.5-5.3-3.3-1.3-10.5-4.1-16-6.1-16.8-6.2-39.8-15.8-44-18.5-13.5-8.4-18.3-9.5-27.9-6.6-2.8.8-8.2 1.8-12 2.1-3.9.3-8.4 1.1-10.1 1.6-4.6 1.7-11.1 7.4-15 13.1-4.8 7.2-12.8 15.7-14.7 15.7-.9 0-2.3.6-3 1.2-5.1 4.8-9.5 5.4-18.6 2.6-1.8-.5-9.9-2.3-18-3.8-8.1-1.6-22.3-4.5-31.7-6.6-13.3-2.9-19.8-3.8-30-4.1-7.1-.2-14.1-.8-15.5-1.3-1.4-.5-4.7-1.2-7.5-1.5-2.7-.4-7.7-1.4-10.9-2.3l-5.9-1.6-2.6 3.2c-1.4 1.7-5.1 7.9-8.1 13.8-4.1 8-7.2 12.4-12.3 17.6-6.5 6.6-7.1 7-13 7.9-13.2 2-25.7 3.1-38.2 3.3l-13 .2-6.8 6.9c-6.2 6.2-20.1 23.8-26.7 33.8-1.4 2-3.3 4-4.2 4.3-1 .3-1.8 1-1.8 1.5s-.8.9-1.7.9c-.9 0-2.9 1.2-4.4 2.6l-2.7 2.6-8.3-1.7c-12.3-2.5-27.3-6.1-36.6-8.9-6.6-2-23.9-6-29.8-7-.5-.1-1.4-.4-2-.7-.9-.5-8-3.1-9.5-3.4-.3-.1-2.5-.7-4.9-1.4-2.4-.7-5.4-1-6.7-.7-1.3.4-7.1 5.1-12.8 10.6-6.7 6.5-12.7 11.3-16.9 13.5l-6.6 3.5h-28.3c-15.6 0-28.8-.4-29.3-.9-.6-.5-4.1-1.6-8-2.4-3.8-.9-7.9-1.8-9.1-2.2-2.4-.8-3.9 1.8-4.9 8.9-.5 2.9-2.3 7.1-5.1 11.4-2.4 3.7-4.4 7.3-4.4 7.9 0 .9-1.6 1.3-4.4 1.3-2.4 0-9.7.9-16.3 2.1-14.5 2.5-29.1 3.3-35.8 1.9-4.2-.9-5.6-1.9-8.8-6-2.7-3.4-4.8-5-7-5.4-2.8-.5-12 .5-16.5 1.8-1 .3-6.6 1-12.7 1.6-6 .6-12.6 1.3-14.5 1.5-1.9.3-9.3 1-16.4 1.5-7.1.6-13.4 1.4-14 1.7-.6.4-4.7 3.4-9.1 6.8-11.2 8.5-17.2 10.8-31.5 12-4.1.4-12.4 1.3-18.5 2.2-13.6 1.9-18.1 1.8-23.4-.3-2.9-1.1-4.8-2.8-6.1-5.3-1.1-2-4.2-6-7-8.9l-5.1-5.4.3 113.6.2 113.6 5.6-.1c3 0 8-.4 11-.9s11.1-1.6 18-2.5c6.9-.8 17.9-2.5 24.5-3.6 6.6-1.2 15.2-2.5 19-2.9 3.9-.5 10.8-1.5 15.5-2.4 4.7-.8 13.9-2.3 20.5-3.2 6.6-.9 15.8-2.2 20.5-3 4.7-.7 12.1-1.8 16.5-2.3 4.4-.6 10.7-1.5 14-2 13.7-2.3 27.4-4.4 33.5-5.2 3.6-.4 9.2-1.2 12.5-1.8 3.3-.6 10.1-1.5 15-2.1 5-.6 10.6-1.5 12.5-2 1.9-.5 8-1.4 13.5-2 5.5-.7 10.3-1.4 10.7-1.6.4-.3 4.2-.9 8.5-1.4 4.3-.6 10.5-1.4 13.8-2 3.3-.5 13.2-1.8 22-3 8.8-1.1 20.7-2.9 26.5-4.1 11.2-2.1 12.5-2.1 18.1.3 2 .9 5.5 1.9 7.8 2.3 2.3.4 4.4 1.2 4.7 1.8.6 1.6 2.2 23.7 3.4 44.7.5 9.6 1.4 22.2 2 28 .5 5.8 1.5 19.7 2 31 .6 11.3 1.6 26.8 2.2 34.5.5 7.7 1.2 26.8 1.4 42.5.5 37 1 49.1 2.3 58.1.7 4.1 1.6 11.7 2.1 16.9.5 5.2 2 17.6 3.4 27.5 6 44 8.3 89.2 5.8 114-.6 6.6-2.1 24.1-3.2 39-3.4 46.2-5.1 65.9-6 69.5-.5 1.9-1.2 6-1.5 9-.4 3-2.6 11.3-5.1 18.5-2.4 7.1-6.4 19.1-8.8 26.5-2.4 7.4-6.7 20-9.6 28-2.8 8-6.8 19.7-9 26-2.1 6.3-9.3 27.5-16 47-6.6 19.5-15 44-18.5 54.5-3.6 10.4-9.6 28-13.3 39-3.8 11-9.5 27.6-12.6 37-3.2 9.3-8.3 23.9-11.3 32.4-4.8 13.7-9.3 29.7-10.7 38.6-.3 1.6-1.9 11.3-3.5 21.5-1.7 10.2-3.3 19.6-3.5 21-.3 1.4-1 5.2-1.5 8.5-.6 3.3-1.7 9.8-2.5 14.5-.7 4.7-2 12.5-2.7 17.5-.7 4.9-1.4 9.4-1.5 10-.1.5-.8 4.1-1.4 8-.7 3.8-1.7 9-2.2 11.5-.5 2.5-1.1 8.8-1.3 14-.4 7.4-1.6 121.6-1.5 138 .1 3.5 11.3 62.9 15 79 5.1 22.4 7.4 44.6 5.4 52.7-.5 1.9-.1 2.2 4.8 2.7 2.9.3 33 .8 66.8 1.1 33.8.3 119.1 1.2 189.5 2s169.4 1.9 220 2.5c50.6.6 126.4 1.6 168.5 2.2 42.1.6 86.6 1.2 99 1.4 12.4.2 27 .8 32.5 1.5 5.5.6 10.5 1.1 11.2 1.2 2.8.1 13.5-7.6 22.8-16.4 19.8-19 24.1-22.2 29.9-22.5 2.3-.2 5.5-1 7.1-1.8 1.7-.9 3.4-1.6 3.8-1.6 1.1 0 .3 13.8-1.7 28.9-.9 6.8-1.5 12.5-1.3 12.7.7.8 69.8.8 126.2.1 34.7-.5 92-1.1 127.5-1.3 35.5-.2 85.4-.6 111-.9 177.5-2.1 265.6-2.9 324-3.1 28.9-.1 73-.5 98-.8 82-1.1 134.5-1.7 203-2.1 37.1-.3 89.1-.7 115.5-1 111-1.3 134.4-1.5 201-2.2 38.5-.4 93.4-.8 122-1 28.6-.1 68-.4 87.5-.7 19.5-.3 67.9-.8 107.5-1.1 39.6-.4 85.7-.7 102.5-.9 16.8-.1 57.5-.6 90.5-.9 56.4-.7 60.6-.6 70 1.2 5.5 1 12.4 2.2 15.3 2.5 5.2.7 5.5.6 8.8-2.9 1.9-2 3.4-4.2 3.4-4.9 0-.7 1.1-3.4 2.4-6.2 6.5-13.6 10.8-23.5 16.1-37.1 1.5-3.9 4.4-9.2 6.4-11.7s4.5-6 5.6-7.8c1.2-1.9 4.8-4.8 9.1-7.3 3.9-2.2 8.6-5.2 10.5-6.7 1.9-1.5 9.3-5.9 16.4-9.9 7.2-4 14.4-8.2 16-9.4 4.7-3.5 59.2-30.1 67.8-33.1 2.2-.8 4.5-1.8 5.1-2.3.6-.4 3.7-1.8 6.8-2.9 3.2-1.2 6.6-2.6 7.5-3.1 14.5-7.9 34.8-15.4 51.3-19.1 8.8-2 29.2-6.8 34-8 10.7-2.8 17.1-4 20.6-4 5.3 0 13.2-4.7 18.1-10.7 2.1-2.6 4.1-4.9 4.5-5.1.4-.2 3-3.4 5.7-7 10.8-14.7 19.1-21.6 32.1-26.6 5.2-2.1 12.7-5 16.5-6.6 3.9-1.5 13.5-5.4 21.5-8.5 8-3.1 17-6.7 20-8 3-1.2 9.8-3.7 15-5.5 11.5-3.8 32.4-13 38-16.7 5.9-3.9 10.7-12.3 18.3-32.3 1.4-3.6 4-10.3 5.9-15 1.9-4.7 6.1-15.3 9.3-23.5 3.1-8.3 6.1-15.9 6.5-17 .8-1.9 2.2-5.6 9.9-26 1.6-4.4 4-10.9 5.1-14.5 6.2-18.5 11.9-29.8 20.5-40.5.9-1.1 2.5-3.6 3.6-5.5 1.9-3.5 6.5-9.8 14.7-20.4l4.2-5.5.3-14.3.2-14.3-3.3-5.3c-1.9-2.8-4.7-6.7-6.4-8.6-3.3-3.8-5.1-6.6-6.9-10.9-.6-1.5-1.5-2.7-2-2.7s-.9-.6-.9-1.4c0-.8-.7-2.1-1.5-3-1.3-1.3-1.5-5.6-1.2-30.8.1-16.1.6-30.2.9-31.3.4-1.1 1.4-5.6 2.3-10 1.5-7.1 2.4-9 8.4-17 3.7-5 7.5-10.3 8.6-12 1-1.6 3.3-4.6 5.1-6.5 7.5-8.1 7.1-6.6 7.8-29 .3-11.3.9-24.6 1.2-29.6.6-8.8.5-9.6-3.2-20-11.5-33.1-15.1-43.2-19.1-53.4-6.8-17.2-6.6-15-6-73.2.5-42.9.3-54.4-.9-62-.8-5.1-2.3-15.2-3.5-22.3-3-19.3-5.8-39.8-6.8-50-.8-7.4-2.7-14.1-11.1-38.5-5.7-16.2-12.9-37.6-16.2-47.5-5.4-16.3-11.4-30.9-15.4-37.5-2.9-4.9-5.5-11.4-7.6-19.4-1.7-6.8-2-9.7-1.4-18.1 2.1-32.5 2.3-29.8-2.2-42.6-2.2-6.5-4.6-15.2-5.3-19.4-1.8-11.4-2.8-12.3-25.4-22.5-16.7-7.5-25.8-12.4-30.9-16.6-10.1-8.3-20-18.8-22.7-23.9-5.4-10.6-9-16.2-12.1-19.1-3.7-3.5-20.2-15.1-29.1-20.4-3.2-1.9-9.3-6.1-13.5-9.3-4.2-3.2-9.3-6.7-11.2-7.7-3.1-1.6-9.1-6-19.4-14.2-1.6-1.3-8.1-5.7-14.6-9.8-6.4-4.1-14.1-9.1-17.2-11.2-7.3-4.8-35.6-14.3-45.8-15.3-4.1-.4-11.1-1.6-15.5-2.7-5.8-1.4-10-1.9-15.3-1.5-6.7.4-7.8.8-14.5 5.3-4 2.7-9.9 7-13.3 9.5-3.5 2.6-8.1 5.1-11 5.8-2.7.7-5.8 1.6-7 2.1-2.3.9-17.2-1.4-18.8-3-.5-.5-1.7-1-2.5-1-2.4 0-9.9-4-12.9-6.9-1.5-1.4-7.6-7.2-13.4-12.8-5.8-5.5-12.1-10.9-13.9-11.9-6-3.2-18.6-7.2-40.9-13-18.4-4.8-20.6-5.2-33-6.4-10.1-1-13.8-1.8-19-4.2-5.9-2.7-7.2-3.9-13.8-12.7-4-5.3-9.8-12.8-13-16.6-3.2-3.9-8.6-11.8-12.1-17.8-7.1-12-11.5-16.9-21.1-23.3-3.6-2.4-10.1-6.9-14.5-9.9s-8.4-5.5-8.8-5.5c-.5 0-2.8-1.4-5.2-3-2.4-1.7-4.6-3-4.9-3-.2 0-6.1-2.7-13-6-6.9-3.4-15.4-7-18.8-8.1-16.8-5.3-41.8-16.2-41.8-18.2-.1-1.6-6.7-8.7-8.1-8.7-.7 0-.9-.9-.5-2.3.3-1.3 1.2-7 2.1-12.8 1.5-10.3 3.3-15.8 6.3-19.2.8-.9 1.2-1.7.7-1.7-.4 0 0-1.1.9-2.5.9-1.3 1.6-3 1.6-3.7 0-.7 5.3-3.8 11.8-6.8l11.7-5.4 16.7-16.8c9.2-9.3 17.7-18.3 19-20 1.2-1.8 5.2-11 8.8-20.4 6.2-16.3 6.8-17.6 12.6-23.8 6.9-7.3 7.8-7.6 24.9-9.6 5.5-.6 14.1-1.8 19-2.6 15-2.4 57.6-8.5 73.9-10.5 5-.6 9.9-1.5 11.1-1.9 1.2-.4 6.6-1.3 12.1-1.9 20-2.3 26.1-3.2 33.4-4.7 9.1-1.8 15.2-2.9 25-4.5 4.1-.6 10.2-1.7 13.5-2.5 3.3-.7 11.6-2.3 18.5-3.4s14.6-2.5 17.2-3c9-1.8 23.3-2.3 31.6-1.1 6.6 1 8.6.9 10.7-.1 4.1-2.2 19.2-16.1 20.4-18.8.5-1.4 2-7 3.2-12.5 1.2-5.5 2.8-12.9 3.5-16.4 2.8-12.6 2.3-16.9-4.7-37.1-3.9-11.6-5.2-13.8-14.4-24.7-2.7-3.3-5.7-7-6.5-8.2-1.3-2-4.3-3.7-15.7-8.7-1.7-.8-4.9-1.4-7.1-1.4-6.6 0-35.3 9.1-48.7 15.4-13.7 6.5-16.1 7.7-20.5 10.5-4.9 3.2-9.8 4.5-23.2 6.1-23.1 2.7-26.8 3.2-33.8 4-4.1.5-10.9 1.4-15 1.9s-15 1.7-24.1 2.6l-16.6 1.7-5.2-2.3c-2.9-1.2-5.9-2.2-6.7-2.2-3.5 0-.2-22.8 6-41.2 2.4-7.2 6.7-20.4 9.6-29.5 2.9-9.1 5.6-17.4 6-18.5.4-1.2 3.8-14.2 7.4-29 8.2-33.1 9-36 12.7-45.8 1.6-4.3 2.9-8.3 2.9-8.9 0-.6 3.1-5.2 6.9-10.3 3.8-5 7.6-10.7 8.6-12.6 3.9-7.6 19.9-26.9 22.3-26.9.4 0 1.6-1.6 2.6-3.5 1.7-3.1 1.8-4.7 1.2-14.2-.5-6-1.1-16-1.6-22.3-.4-6.3-1.2-16.5-1.8-22.5-.6-6.1-1.6-17.8-2.2-26l-1.2-15.1 2.7-6.1c2.2-4.9 3.7-6.8 7.5-9.2 2.6-1.7 5.1-3.1 5.5-3.1.3 0 3.9-1.9 7.8-4.2 4-2.3 9-5.1 11.2-6.2 2.2-1 6-2.8 8.3-4 7-3.3 10.9-7.5 15.2-16.6 2.3-4.7 4.7-9.6 5.5-11 .7-1.4 2.6-5 4.2-8s4.7-8.4 6.8-12c2.1-3.6 5.7-10.1 8-14.5s6.3-11.8 9-16.5c2.6-4.7 7.9-14.8 11.8-22.5 9-18.2 12.9-26.1 15.5-31 1.2-2.2 3.5-6.7 5-10 1.6-3.3 3.6-7.4 4.5-9 .8-1.7 3.1-6.4 5.1-10.6 4.3-9.2 10.3-16.9 16-20.8 2.2-1.6 6.8-5.4 10.1-8.5 3.3-3.2 7.6-6.5 9.5-7.6 4.8-2.5 11-8.9 17.7-18.2 3.1-4.3 6-7.8 6.5-7.8.4 0 .8-.5.8-1.1 0-1.4 8.8-12.7 13.8-17.8 2.1-2 6.2-5.2 9.2-7.1 3-1.9 6.2-4.2 7.1-5 .9-.8 3.1-2.6 4.8-3.9 1.7-1.3 3.1-2.9 3.1-3.5 0-.7 3.7-3.7 8.3-6.6 4.5-3 8.4-5.7 8.5-6.2.2-.4.8-.8 1.3-.8s4.3-2.5 8.5-5.6c8.4-6.2 10.1-9 12.9-20.9.9-3.9 2.7-11.3 4-16.5 1.3-5.2 2.9-12.2 3.5-15.5 1.5-7.8 7.8-29.2 9.6-32.6.7-1.5 2.2-5.8 3.3-9.6 1-3.8 3-9.4 4.4-12.4 1.5-3 3.1-7.7 3.6-10.4.6-2.8 1.7-26.6 2.6-53 .8-26.4 1.7-53.4 2-60 .2-6.6.7-18.9 1.1-27.3.3-8.5 1.2-17.5 1.9-20 .7-2.6 1.6-6.9 2-9.5.8-5.7-.5-7.7-12-19.3-3.8-3.9-9.6-10-12.8-13.5-3.3-3.5-9.8-10.5-14.6-15.4-9.5-9.8-13.4-15.6-15.5-23.1-.7-2.7-3.2-12.1-5.5-20.9-2.3-8.8-5.1-17.4-6.1-19-1.1-1.7-3.8-6.8-6-11.5-4.6-9.8-6-12.4-12.5-24-2.7-4.6-5.7-10.6-6.7-13.4-2.8-7.2-7.8-17.9-9.3-19.6-.7-.8-2.4-4.2-3.8-7.6-2.1-5.2-6.7-12.5-22.8-35.9-1.9-2.8-3.6-5.2-3.9-5.5-.3-.3-2.8-3.4-5.5-7-2.6-3.6-6.1-7.9-7.8-9.7-1.6-1.7-3.4-4-4.1-5.1-.6-1.1-1.9-3.3-2.8-5-1-1.6-2.5-6.5-3.3-10.8-.9-4.4-3-10.8-4.7-14.3-4.8-10.2-8.8-22.7-8.8-27.7 0-2.5-.9-8.1-2-12.4-1.1-4.3-2.2-12.4-2.4-17.9-.2-6.7-.9-10.8-1.8-12.3-1.8-2.7-21.1-22.2-35.4-35.7-5.4-5.2-13.9-13.3-18.9-18.1-4.9-4.8-12.1-11.1-16-14-3.8-2.8-7.4-5.8-7.8-6.6-.4-.8-1.4-1.4-2-1.4-.7 0-2.8-1.6-4.7-3.5-1.9-1.9-3.9-3.5-4.4-3.5-.6 0-3.5-2-6.5-4.3-3.1-2.4-9.6-7.1-14.6-10.4-11.6-7.8-25.1-18.4-33.7-26.6-1-.9-2.2-1.7-2.7-1.7s-1.1-.4-1.3-.8c-.1-.4-4.5-3.7-9.6-7.2-24.5-17-28-20.6-36-36.2-3.5-6.8-7.6-14.6-9.3-17.3-4.7-8-6.5-11.7-7.9-16-2-6.5-5.1-12.9-6.9-14.2-1.8-1.3-9.1-3.4-19.6-5.8-6.7-1.5-10.9-2.5-13-3.1-2.3-.6-19.7-4.6-28.5-6.5-13.6-3-36.6-9.1-42.3-11.3-3.4-1.3-8.9-3.4-12.2-4.6-3.3-1.2-7.3-2.7-9-3.4-17.9-7.6-26.2-11-32.5-13.2-7.9-2.7-21.6-9.3-26-12.4-1.4-1-4.8-2.4-7.5-3.1-3.6-.9-6.5-2.7-10.8-6.7-6.5-6-12.5-9.1-17.5-9.2-3.8 0-7.3-2-12.3-7.1-2.6-2.6-5.2-4-9-4.9-2.9-.7-7.2-2.8-9.8-4.7-2.5-2-5.5-3.9-6.7-4.3-1.2-.5-5.5-2.4-9.5-4.3-4.1-1.9-8.5-3.8-9.9-4.2-4.1-1.3-15.2-6.6-19.3-9.3-3.3-2.2-5.4-2.6-18-3.5-8.8-.6-86.4-.9-203.2-.7-293.6.3-320.3.3-331.2-.5l-10.2-.8-2 3.4zm935.3 1046.5c6.3 2 13.4 4.7 30.1 11.4 13.3 5.4 18.8 6.3 26 4.2 3.4-1 4-1 14.1 1.3 7.2 1.6 7.3 1.7 11.1 7.3 2.7 4.2 3.8 6.9 4 10.4.3 4.3-.2 7.9-4.1 30.8-.8 4.7-2 13.4-2.6 19.5-.7 6-1.7 11.7-2.1 12.6-.5.9-2.2 6.3-3.8 12-5.6 19.8-9.1 30.4-12.6 38.9-2 4.7-5.4 13.4-7.5 19.4-8 22.3-19.4 33.2-39.6 38.1-1 .3-4.4 1.2-7.4 2.1-3 .9-7.1 2-9 2.4-1.9.4-6.6 1.8-10.5 2.9-16 4.9-38.6 8.7-57 9.6-4.9.3-12.8.7-17.5 1-5.8.4-10.9.1-16-1-4.1-.8-11.5-2.2-16.5-3-10.7-1.7-22.2-5.2-29.8-9.1-7.8-4.1-15.8-14.5-21.1-27.2-1.8-4.5-3.7-8.7-4.2-9.4-.6-.7-3-5.6-5.4-10.8-6.8-14.8-18.1-36.3-20.1-38.4-2.6-2.8-8.6-4.6-15.4-4.6h-6.1l-3.9 5.2c-5.5 7.2-7.9 11.5-18.3 32.3-4.9 9.9-10.2 21.7-11.7 26.2-4.7 14.7-16.4 29.1-32 39.5-6.6 4.4-16.3 8.4-29 11.8-11.9 3.2-16.5 4.5-34 9.5-4.9 1.4-13.6 3.9-19.2 5.4-5.6 1.6-10.6 3.2-11.1 3.5-.6.3-11.5.6-24.3.6-19.6 0-25.3-.3-34.9-2.1-6.3-1.1-14.6-2.5-18.3-3-3.8-.5-12.4-2.3-19.1-3.9-6.8-1.7-12.9-3-13.5-3-.7 0-1.7-.5-2.4-1-.7-.6-3.7-3-6.8-5.5-6.7-5.4-18.4-19.9-22.6-28-1.7-3.3-5.5-12.1-8.4-19.5-2.9-7.4-6.1-14.7-7.1-16.2-1-1.4-1.8-2.9-1.8-3.2 0-.3-.9-2.5-1.9-4.9-1-2.3-3.1-7.8-4.6-12.2-3.2-9.4-6.8-16.1-9.5-17.5-1.2-.6-6.2-.8-13.2-.4-10.3.6-36.8-.7-42.8-2.1-1.4-.3-5.9-1.2-10.2-2-4.2-.7-9.6-1.9-12-2.5-6.7-1.9-20.2-3.9-32.8-5-6.3-.5-15.4-1.4-20.1-2-4.8-.5-10.6-1-13-1-2.4 0-8.9-.6-14.4-1.5-5.5-.8-16.5-2.4-24.5-3.6-13.9-2-26.3-4-36-5.9-2.5-.5-8.8-1.6-14-2.4-5.2-.9-14-2.4-19.5-3.5-5.5-1-12.3-2.2-15.1-2.6l-5.2-.7 1.9-5c1.2-3.3 1.5-5.7 1-6.7-.7-1.1.3-2.6 4.2-6.1 2.9-2.5 8.8-8 13.2-12.2 5.1-4.9 9.7-8.4 12.5-9.4 6.6-2.5 23.7-2.3 36.5.4 5.5 1.1 13.6 2.4 18 2.7 4.4.4 10.5 1 13.5 1.5 8.2 1.3 16.8 2.1 34 3 43.2 2.4 54.1 3.1 60.2 4 3.7.6 10 1 14.1 1 9.7 0 26.8 1.7 39.2 4 10.9 2 21.1 1.8 33-.4 3.9-.8 10.4-1.9 14.5-2.6 12.5-2 21.9-4.1 34-7.5 6.3-1.8 13.3-3.6 15.5-3.9 2.2-.4 13.5-2.7 25-5.1 33.2-6.9 42.6-7.9 70.8-7.2 25.7.6 59.6 3 68.7 4.8 10 2 45.4 15.3 51.2 19.1 1.4 1 2.9 1.8 3.3 1.8.4 0 4.8 2 9.9 4.4 13.6 6.6 15.5 7 26.1 5.6 5-.7 16.9-1.5 26.5-1.9l17.5-.6 10-7.3c13.3-9.7 25.4-17.1 40-24.2 12.7-6.2 37.1-15.5 49.5-18.9 4.1-1.1 9.8-2.9 12.5-4 21.3-8.1 28.1-9.4 45.4-8.6 13 .6 16.3.4 30.1-1.9 8.5-1.4 15.8-2.6 16.2-2.6.4 0 .8-.4.8-.8 0-2.8-13.6-3.6-31.5-1.7-3.9.4-4.1.3-5.8-3.8-.9-2.3-1.7-4.5-1.7-4.8 0-.3 1.6-1.1 3.5-1.9 1.9-.7 3.7-2.1 4-3.1.7-2 4.7-1.8 12.9.7zM1001.9 2215.1c-.6 1.2-.9 3.2-.6 4.5.3 1.8-1.1 3.9-6.7 9.6-9.8 10-23.5 24.5-55 57.9-14.1 14.9-25 27.9-30.1 36-2.6 4.1-6.7 9.5-9.1 12-2.5 2.5-6.4 7.3-8.7 10.6-17.4 25-22.2 30.2-37 40-5.3 3.6-10 6.9-10.3 7.4-1 1.6-2.3 1-3.8-1.9-2-3.7-6.5-8.4-7.6-7.7-.9.5-1.1-.4-3.1-12.2-1.4-8.1-.6-13 3.8-25.8 4.3-12.2 5.3-15.7 4.8-16.5-1-1.6 3.1-8.5 8-13.6 3.6-3.7 7.5-6.3 13.9-9.3 4.9-2.2 9.5-4.1 10.2-4.1.7 0 2.5-.6 4.1-1.4 1.5-.8 5.3-2.1 8.3-3 22.5-6.3 26.2-8 38.1-17.7 2.4-2 8.3-5.7 13.1-8.3 4.8-2.6 9.1-5.3 9.5-5.9 1-1.6 1.2-3.9 1.3-15 .1-9.9-1.2-15-4.6-17.8-1.1-.9-.6-1.7 3.1-4.6 2.5-1.8 4.5-4 4.5-4.7 0-1.6 4.8-2.8 20.5-5.2 6.1-.9 15.5-2.4 21-3.4 13.7-2.5 13.8-2.5 12.4.1z"/><path d="M3061.5 1228c-2.2.4-7.5.8-11.9.9-11.8.1-44.8 6.1-62.1 11.3-3.8 1.1-9.9 2.7-13.4 3.4-11.8 2.5-26.2 7.6-31 11.1-2.5 1.8-5.3 3.6-6.1 4-6.9 3.1-23.1 16.7-25.5 21.3-1.9 3.7-3.5 32-3.3 59.4.2 26.8.8 32.1 4.5 38.6 5.4 9.3 20.7 19.9 34 23.6 4.8 1.3 10.5 3.1 12.5 3.9 2.1.8 7 2.2 10.9 3.1 10.7 2.4 37.8 1.3 52.3-2.1 5.8-1.4 12.7-2.5 15.3-2.5 2.7-.1 7.7-.8 11.3-1.6 3.6-.8 8.1-1.9 10-2.3 10.3-2.4 22.7-6.5 30.5-10.1 2.2-1 6-2.1 8.5-2.5 7.3-1.1 9.2-2.5 13.1-9.9 3.3-6.2 6.8-18.2 11-37.6.6-3 2.7-11.1 4.6-18 8.7-31.4 10-38.7 11.2-60 .9-19.1.8-21.2-1.9-25.5-2.8-4.5-5.5-5.2-20.8-5.9-7.3-.3-15.2-1-17.5-1.5-6.1-1.4-31.5-2.1-36.2-1.1zM2671.7 1259.6c-.1.1-8.3.7-18.2 1.3-21.7 1.4-21.5 1.4-34 4.6-20.8 5.3-32.7 11.9-38.9 21.6l-3.9 6-1.8 20.7c-2.1 23.5-2.3 35.1-.9 43.1.5 3.1 1.9 12.3 3 20.6 4.7 34.3 6.7 39.5 17.1 44.7 18 9.1 20.3 10 28.6 10.8 4.6.5 13.8 2.1 20.6 3.6l12.2 2.7 25-1.1c28-1.3 34.3-2.4 56.4-9.7 7.5-2.4 19.5-5.8 26.6-7.4 7.2-1.6 15-3.8 17.5-4.9 5.8-2.6 20.2-16 22.4-20.9 1-2.1 2.1-4.7 2.6-5.8.5-1.1 1.4-4 2.1-6.5 2.6-10.5 7.5-23.2 13-33.6 6.6-12.7 10.3-23.2 12.4-35.3 1.5-8.1 1.4-8.5-.9-15.3-1.3-3.8-3.7-8.5-5.2-10.5-5-6.6-17-13.8-28.5-17.3-4.1-1.3-9-2.9-10.9-3.6-6.8-2.7-13.8-3.5-41.5-4.4-15.4-.5-34.1-1.3-41.5-1.9-13-1-32.8-1.9-33.3-1.5zM2695.1 144.4c.2.2 2.6.7 5.3 1 3.3.5 4.6.4 4.1-.3-.3-.6-2.7-1.1-5.2-1.1-2.6 0-4.4.2-4.2.4z"/></svg>